<?xml version="1.0" encoding="utf-8"?>
<!-- Generator: Adobe Illustrator 25.3.1, SVG Export Plug-In . SVG Version: 6.00 Build 0)  -->
<svg version="1.1" id="Layer_1" xmlns="http://www.w3.org/2000/svg" xmlns:xlink="http://www.w3.org/1999/xlink" x="0px" y="0px"
	 viewBox="0 0 180 45.3" style="enable-background:new 0 0 180 45.3;" xml:space="preserve">
<style type="text/css">
	.st0{fill:#001B59;}
	.st1{fill:#004EDD;}
</style>
<g>
	<g>
		<path class="st0" d="M68.9,34.2c-0.7,0.2-1.7,0.3-2.8,0.3c-0.7,0-1.4-0.1-2-0.3c-0.6-0.2-1.1-0.6-1.5-1.1
			c-0.4-0.5-0.7-1.2-0.9-2.1c-0.2-0.9-0.3-2.1-0.3-3.5c0-1.4,0.1-2.6,0.3-3.5c0.2-0.9,0.5-1.6,0.9-2.1c0.4-0.5,0.9-0.9,1.4-1.1
			c0.6-0.2,1.2-0.3,2-0.3c0.9,0,1.7,0.1,2.4,0.3c0.7,0.2,1.4,0.5,2,0.8l1.8-4.2c-0.7-0.5-1.7-0.9-2.8-1.3c-1.1-0.4-2.4-0.5-3.8-0.5
			c-1.3,0-2.6,0.2-3.9,0.6c-1.3,0.4-2.4,1.1-3.4,2c-1,0.9-1.8,2.2-2.5,3.7c-0.6,1.5-0.9,3.4-0.9,5.5c0,2.4,0.3,4.3,0.9,5.8
			c0.6,1.5,1.4,2.8,2.5,3.6c1,0.9,2.2,1.5,3.4,1.9c1.3,0.4,2.6,0.5,3.9,0.5c1.4,0,2.7-0.2,3.9-0.5c1.2-0.4,2.3-0.9,3.2-1.6l-1.6-4
			C70.4,33.7,69.6,34,68.9,34.2z"/>
		<rect x="77.2" y="15.8" class="st0" width="6.4" height="23.6"/>
		<path class="st0" d="M80.4,5.2c-2,0-3.5,1.6-3.5,3.5c0,2,1.6,3.5,3.5,3.5c2,0,3.5-1.6,3.5-3.5C83.9,6.8,82.4,5.2,80.4,5.2z"/>
		<path class="st0" d="M101.7,34.2c-0.4,0.2-0.8,0.2-1.2,0.2c-0.9,0-1.6-0.2-1.9-0.6c-0.4-0.4-0.5-1.2-0.5-2.2V20.2h5.7v-4.7h-5.7
			V9.9h-4.5L93,11.8c-0.6,1.9-2.2,3.4-4.1,3.9v4.5h2.8v13.6c0,1.9,0.6,3.4,1.7,4.3c1.1,0.9,2.6,1.4,4.3,1.4c1.4,0,2.7-0.2,3.8-0.5
			c1.1-0.3,2-0.8,2.8-1.3l-1.5-4C102.5,33.8,102.1,34,101.7,34.2z"/>
		<path class="st0" d="M118,15.8c-1.5,0-2.9,0.3-4.2,0.8c-1.3,0.5-2.4,1.2-3.3,2.2c-0.9,1-1.6,2.2-2.2,3.7c-0.5,1.5-0.8,3.2-0.8,5.2
			c0,3.9,0.9,6.9,2.6,8.9c1.8,2,4.3,3,7.6,3c1.8,0,3.4-0.2,4.8-0.6c1.4-0.4,2.6-1.1,3.8-2.1l-1.9-4c-0.9,0.5-1.8,0.9-2.8,1.3
			c-1,0.3-1.9,0.5-2.9,0.5c-1,0-1.8-0.1-2.4-0.3c-0.6-0.2-1.1-0.5-1.5-0.9c-0.4-0.4-0.6-1-0.8-1.6c-0.2-0.7-0.2-1.5-0.2-2.5h12.5
			c0.1-0.6,0.1-1.2,0.1-1.9c0-0.7,0-1.2,0-1.8c0-3.1-0.7-5.5-2.1-7.2C123.1,16.6,120.9,15.8,118,15.8z M120.9,24.8H114
			c0.1-1.5,0.4-2.6,0.9-3.3c0.5-0.7,1.4-1.1,2.7-1.1c1.3,0,2.2,0.3,2.6,1c0.4,0.7,0.6,1.7,0.6,2.9V24.8z"/>
		<rect x="130.7" y="5.2" class="st0" width="6.4" height="33.8"/>
		<path class="st0" d="M145.5,5.2c-2,0-3.5,1.6-3.5,3.5c0,2,1.6,3.5,3.5,3.5c2,0,3.5-1.6,3.5-3.5C149.1,6.8,147.5,5.2,145.5,5.2z"/>
		<rect x="142.3" y="15.7" class="st0" width="6.4" height="23.6"/>
		<path class="st0" d="M168.9,28.1c-0.9-1-2.2-1.7-3.8-2.3l-2.6-0.9c-1-0.4-1.7-0.7-2-1c-0.4-0.3-0.6-0.8-0.6-1.5
			c0-0.7,0.2-1.2,0.7-1.5c0.5-0.3,1.1-0.4,1.7-0.4c1,0,2,0.1,3,0.4c0.9,0.3,1.8,0.5,2.6,0.8l1.2-4.7c-0.9-0.4-2-0.8-3.2-1
			c-1.3-0.2-2.6-0.3-3.9-0.3c-1.3,0-2.4,0.2-3.4,0.5c-1,0.4-1.9,0.9-2.6,1.5c-0.7,0.6-1.2,1.4-1.6,2.3c-0.4,0.9-0.6,1.9-0.6,2.9
			c0,1.8,0.5,3.2,1.5,4.3c1,1,2.4,1.9,4,2.5l2.4,0.9c0.8,0.3,1.3,0.6,1.6,0.9c0.3,0.3,0.4,0.7,0.4,1.2c0,0.6-0.2,1.1-0.6,1.5
			c-0.4,0.4-1.1,0.6-2.1,0.6c-1.3,0-2.5-0.1-3.6-0.4c-1.1-0.3-2.1-0.6-3.2-1l-1,4.7c0.5,0.2,1,0.4,1.6,0.6c0.6,0.2,1.3,0.3,2,0.5
			c0.7,0.1,1.4,0.2,2.1,0.3c0.7,0.1,1.5,0.1,2.2,0.1c2.9,0,5.1-0.7,6.6-2c1.5-1.3,2.3-3.1,2.3-5.4C170.2,30.4,169.8,29,168.9,28.1z"
			/>
		<g>
			<path class="st0" d="M176.4,32c-2,0-3.6,1.6-3.6,3.6s1.6,3.6,3.6,3.6s3.6-1.6,3.6-3.6S178.4,32,176.4,32z M176.4,38.5
				c-1.6,0-2.9-1.3-2.9-2.9s1.3-2.9,2.9-2.9s2.9,1.3,2.9,2.9S178,38.5,176.4,38.5z"/>
			<path class="st0" d="M178,35c0-0.7-0.6-1.2-1.3-1.2h-1.5v3.5h0.6v-1.2h0.7l0.8,1.2h0.7l-0.9-1.3C177.7,36,178,35.5,178,35z
				 M176.6,35.6h-0.8v-1.2h0.8c0.4,0,0.7,0.2,0.7,0.6C177.4,35.4,177.1,35.6,176.6,35.6z"/>
		</g>
	</g>
	<g>
		<path class="st1" d="M42,19.3L42,19.3C42,19.3,42,19.3,42,19.3c-7.5,0-13.8-5.2-15.5-12.1c-0.2,3.4-1.2,6.6-2.8,9.5
			c4.1,5.6,10.8,9.3,18.3,9.3c0,0,0,0,0,0c1.8,0,3.3-1.5,3.3-3.3C45.3,20.8,43.8,19.3,42,19.3z"/>
		<path class="st1" d="M25.9,3.3C25.9,3.3,25.9,3.3,25.9,3.3c0-1.8-1.5-3.3-3.3-3.3c-1.8,0-3.3,1.5-3.3,3.3h0c0,0,0,0,0,0
			c0,7.5-5.2,13.8-12.1,15.5c3.4,0.2,6.6,1.2,9.5,2.8C22.3,17.5,25.9,10.8,25.9,3.3z"/>
		<path class="st1" d="M3.3,19.3C3.3,19.3,3.3,19.3,3.3,19.3c-1.8,0-3.3,1.5-3.3,3.3C0,24.5,1.5,26,3.3,26v0c0,0,0,0,0,0
			c7.5,0,13.8,5.2,15.5,12.1c0.2-3.4,1.2-6.6,2.8-9.5C17.5,23,10.8,19.3,3.3,19.3z"/>
		<path class="st1" d="M19.3,42C19.3,42,19.3,42,19.3,42c0,1.8,1.5,3.3,3.3,3.3c1.8,0,3.3-1.5,3.3-3.3h0c0,0,0,0,0,0
			c0-7.5,5.2-13.8,12.1-15.5c-3.4-0.2-6.6-1.2-9.5-2.8C23,27.8,19.3,34.4,19.3,42z"/>
	</g>
</g>
</svg>
